<svg xmlns="http://www.w3.org/2000/svg" width="80" height="80" viewBox="0 0 80 80" fill="none">
  <path d="M39.9998 23.3333C40.9443 23.3333 41.736 23.0139 42.3748 22.375C43.0137 21.7361 43.3332 20.9444 43.3332 20C43.3332 19.0555 43.0137 18.2638 42.3748 17.625C41.736 16.9861 40.9443 16.6666 39.9998 16.6666C39.0554 16.6666 38.2637 16.9861 37.6248 17.625C36.986 18.2638 36.6665 19.0555 36.6665 20C36.6665 20.9444 36.986 21.7361 37.6248 22.375C38.2637 23.0139 39.0554 23.3333 39.9998 23.3333ZM36.6665 50H43.3332V30H36.6665V50ZM6.6665 73.3333V13.3333C6.6665 11.5 7.31928 9.93052 8.62484 8.62496C9.93039 7.3194 11.4998 6.66663 13.3332 6.66663H66.6665C68.4998 6.66663 70.0693 7.3194 71.3748 8.62496C72.6804 9.93052 73.3332 11.5 73.3332 13.3333V53.3333C73.3332 55.1666 72.6804 56.7361 71.3748 58.0416C70.0693 59.3472 68.4998 60 66.6665 60H19.9998L6.6665 73.3333ZM17.1665 53.3333H66.6665V13.3333H13.3332V57.0833L17.1665 53.3333Z" fill="#EF7F1A"/>
</svg>