<svg xmlns="http://www.w3.org/2000/svg" width="80" height="80" viewBox="0 0 80 80" fill="none">
  <path d="M67.9333 28.5666L63.8333 34.7333C65.8105 38.6769 66.7785 43.0494 66.6505 47.459C66.5225 51.8687 65.3026 56.1777 63.0999 60H16.8999C14.0371 55.0336 12.8509 49.277 13.5171 43.5835C14.1832 37.89 16.6663 32.5627 20.5982 28.3914C24.5301 24.2201 29.7015 21.4268 35.3457 20.4256C40.99 19.4245 46.8066 20.2687 51.9333 22.8333L58.0999 18.7333C51.8215 14.7073 44.3743 12.9033 36.9495 13.6097C29.5248 14.3162 22.5514 17.4923 17.1449 22.63C11.7384 27.7677 8.21113 34.5702 7.12731 41.9493C6.0435 49.3285 7.46576 56.8579 11.1666 63.3333C11.7483 64.3409 12.5836 65.1787 13.5894 65.7635C14.5952 66.3482 15.7365 66.6596 16.8999 66.6666H63.0666C64.2413 66.6713 65.3964 66.3655 66.4149 65.7801C67.4335 65.1947 68.2792 64.3506 68.8666 63.3333C71.9378 58.013 73.4791 51.9475 73.3203 45.8065C73.1615 39.6654 71.3087 33.6877 67.9666 28.5333L67.9333 28.5666Z" fill="#EF7F1A"/>
  <path d="M35.2999 51.3666C35.9191 51.9865 36.6543 52.4782 37.4637 52.8137C38.273 53.1492 39.1405 53.3219 40.0166 53.3219C40.8927 53.3219 41.7602 53.1492 42.5695 52.8137C43.3788 52.4782 44.1141 51.9865 44.7333 51.3666L63.5999 23.0666L35.2999 41.9333C34.6801 42.5524 34.1884 43.2877 33.8529 44.097C33.5174 44.9063 33.3447 45.7738 33.3447 46.65C33.3447 47.5261 33.5174 48.3936 33.8529 49.2029C34.1884 50.0122 34.6801 50.7475 35.2999 51.3666Z" fill="#EF7F1A"/>
</svg>