<svg xmlns="http://www.w3.org/2000/svg" width="80" height="80" viewBox="0 0 80 80" fill="none">
  <path d="M40.0001 73.3333C35.4445 73.3333 31.139 72.4583 27.0834 70.7083C23.0279 68.9583 19.4862 66.5694 16.4584 63.5416C13.4306 60.5139 11.0417 56.9722 9.29175 52.9166C7.54175 48.8611 6.66675 44.5555 6.66675 40C6.66675 35.3889 7.54175 31.0694 9.29175 27.0416C11.0417 23.0139 13.4306 19.4861 16.4584 16.4583C19.4862 13.4305 23.0279 11.0416 27.0834 9.29163C31.139 7.54163 35.4445 6.66663 40.0001 6.66663C44.6112 6.66663 48.9306 7.54163 52.9584 9.29163C56.9862 11.0416 60.514 13.4305 63.5418 16.4583C66.5695 19.4861 68.9584 23.0139 70.7084 27.0416C72.4584 31.0694 73.3334 35.3889 73.3334 40C73.3334 44.5555 72.4584 48.8611 70.7084 52.9166C68.9584 56.9722 66.5695 60.5139 63.5418 63.5416C60.514 66.5694 56.9862 68.9583 52.9584 70.7083C48.9306 72.4583 44.6112 73.3333 40.0001 73.3333ZM40.0001 53.3333C43.3334 53.3333 46.5834 53.8194 49.7501 54.7916C52.9168 55.7639 55.889 57.1666 58.6668 59C61.2223 56.4444 63.1945 53.5416 64.5834 50.2916C65.9723 47.0416 66.6668 43.6111 66.6668 40C66.6668 32.5555 64.0834 26.25 58.9168 21.0833C53.7501 15.9166 47.4445 13.3333 40.0001 13.3333C32.5556 13.3333 26.2501 15.9166 21.0834 21.0833C15.9167 26.25 13.3334 32.5555 13.3334 40C13.3334 43.6111 14.014 47.0555 15.3751 50.3333C16.7362 53.6111 18.7223 56.5 21.3334 59C24.1112 57.1666 27.0834 55.7639 30.2501 54.7916C33.4168 53.8194 36.6668 53.3333 40.0001 53.3333ZM40.0001 60C37.7223 60 35.5001 60.2777 33.3334 60.8333C31.1668 61.3889 29.1112 62.2222 27.1668 63.3333C29.1112 64.4444 31.1668 65.2777 33.3334 65.8333C35.5001 66.3889 37.7223 66.6666 40.0001 66.6666C42.2779 66.6666 44.5001 66.3889 46.6668 65.8333C48.8334 65.2777 50.889 64.4444 52.8334 63.3333C50.889 62.2222 48.8334 61.3889 46.6668 60.8333C44.5001 60.2777 42.2779 60 40.0001 60ZM23.3334 36.6666C24.2779 36.6666 25.0695 36.3472 25.7084 35.7083C26.3473 35.0694 26.6668 34.2777 26.6668 33.3333C26.6668 32.3889 26.3473 31.5972 25.7084 30.9583C25.0695 30.3194 24.2779 30 23.3334 30C22.389 30 21.5973 30.3194 20.9584 30.9583C20.3195 31.5972 20.0001 32.3889 20.0001 33.3333C20.0001 34.2777 20.3195 35.0694 20.9584 35.7083C21.5973 36.3472 22.389 36.6666 23.3334 36.6666ZM33.3334 26.6666C34.2779 26.6666 35.0695 26.3472 35.7084 25.7083C36.3473 25.0694 36.6668 24.2777 36.6668 23.3333C36.6668 22.3889 36.3473 21.5972 35.7084 20.9583C35.0695 20.3194 34.2779 20 33.3334 20C32.389 20 31.5973 20.3194 30.9584 20.9583C30.3195 21.5972 30.0001 22.3889 30.0001 23.3333C30.0001 24.2777 30.3195 25.0694 30.9584 25.7083C31.5973 26.3472 32.389 26.6666 33.3334 26.6666ZM56.6668 36.6666C57.6112 36.6666 58.4029 36.3472 59.0418 35.7083C59.6806 35.0694 60.0001 34.2777 60.0001 33.3333C60.0001 32.3889 59.6806 31.5972 59.0418 30.9583C58.4029 30.3194 57.6112 30 56.6668 30C55.7223 30 54.9306 30.3194 54.2918 30.9583C53.6529 31.5972 53.3334 32.3889 53.3334 33.3333C53.3334 34.2777 53.6529 35.0694 54.2918 35.7083C54.9306 36.3472 55.7223 36.6666 56.6668 36.6666ZM40.0001 46.6666C41.8334 46.6666 43.4029 46.0139 44.7084 44.7083C46.014 43.4027 46.6668 41.8333 46.6668 40C46.6668 39.2777 46.5556 38.5694 46.3334 37.875C46.1112 37.1805 45.7779 36.5555 45.3334 36L49.8334 24.6666C50.2223 23.7777 50.2362 22.9027 49.8751 22.0416C49.514 21.1805 48.889 20.5555 48.0001 20.1666C47.1668 19.7777 46.3195 19.7638 45.4584 20.125C44.5973 20.4861 44.0001 21.1111 43.6668 22L39.1668 33.3333C37.5001 33.6111 36.1112 34.375 35.0001 35.625C33.889 36.875 33.3334 38.3333 33.3334 40C33.3334 41.8333 33.9862 43.4027 35.2918 44.7083C36.5973 46.0139 38.1668 46.6666 40.0001 46.6666Z" fill="#EF7F1A"/>
</svg>