<svg xmlns="http://www.w3.org/2000/svg" width="80" height="80" viewBox="0 0 80 80" fill="none">
  <path d="M41.9165 71.3333C40.5832 72.6666 38.9998 73.3333 37.1665 73.3333C35.3332 73.3333 33.7498 72.6666 32.4165 71.3333L8.58317 47.5C7.30539 46.2222 6.6665 44.6527 6.6665 42.7916C6.6665 40.9305 7.30539 39.3611 8.58317 38.0833L37.9165 8.66663C38.5276 8.05552 39.2498 7.5694 40.0832 7.20829C40.9165 6.84718 41.8054 6.66663 42.7498 6.66663H66.5832C68.4165 6.66663 69.986 7.3194 71.2915 8.62496C72.5971 9.93052 73.2498 11.5 73.2498 13.3333V37.1666C73.2498 38.1111 73.0693 39 72.7082 39.8333C72.3471 40.6666 71.861 41.3889 71.2498 42L41.9165 71.3333ZM58.2498 26.6666C59.6387 26.6666 60.8193 26.1805 61.7915 25.2083C62.7637 24.2361 63.2498 23.0555 63.2498 21.6666C63.2498 20.2777 62.7637 19.0972 61.7915 18.125C60.8193 17.1527 59.6387 16.6666 58.2498 16.6666C56.8609 16.6666 55.6804 17.1527 54.7082 18.125C53.7359 19.0972 53.2498 20.2777 53.2498 21.6666C53.2498 23.0555 53.7359 24.2361 54.7082 25.2083C55.6804 26.1805 56.8609 26.6666 58.2498 26.6666ZM37.1665 66.6666L66.5832 37.1666V13.3333H42.7498L13.3332 42.8333L37.1665 66.6666Z" fill="#EF7F1A"/>
</svg>