<svg xmlns="http://www.w3.org/2000/svg" width="80" height="80" viewBox="0 0 80 80" fill="none">
  <path d="M63.5665 16.4333L58.8665 21.1333C63.6665 25.9666 66.6665 32.6333 66.6665 40C66.6665 54.7333 54.7332 66.6666 39.9998 66.6666C25.2665 66.6666 13.3332 54.7333 13.3332 40C13.3332 26.4 23.4998 15.2 36.6665 13.5666V20.3C27.1998 21.9 19.9998 30.1 19.9998 40C19.9998 51.0333 28.9665 60 39.9998 60C51.0332 60 59.9998 51.0333 59.9998 40C59.9998 34.4666 57.7665 29.4666 54.1332 25.8666L49.4332 30.5666C51.8332 33 53.3332 36.3333 53.3332 40C53.3332 47.3666 47.3665 53.3333 39.9998 53.3333C32.6332 53.3333 26.6665 47.3666 26.6665 40C26.6665 33.8 30.9332 28.6333 36.6665 27.1333V34.2666C34.6665 35.4333 33.3332 37.5333 33.3332 40C33.3332 43.6666 36.3332 46.6666 39.9998 46.6666C43.6665 46.6666 46.6665 43.6666 46.6665 40C46.6665 37.5333 45.3332 35.4 43.3332 34.2666V6.66663H39.9998C21.5998 6.66663 6.6665 21.6 6.6665 40C6.6665 58.4 21.5998 73.3333 39.9998 73.3333C58.3998 73.3333 73.3332 58.4 73.3332 40C73.3332 30.8 69.5998 22.4666 63.5665 16.4333Z" fill="#EF7F1A"/>
</svg>