<svg xmlns="http://www.w3.org/2000/svg" width="15" height="21" viewBox="0 0 15 21" fill="none">
  <path d="M2.77 1.09L3.85 0.75C4.86 0.42 5.93 0.95 6.37 1.96L7.23 3.99C7.60 4.87 7.39 5.91 6.71 6.56L4.82 8.35C4.94 9.43 5.30 10.49 5.90 11.53C6.48 12.54 7.25 13.42 8.18 14.13L10.45 13.37C11.31 13.08 12.25 13.41 12.78 14.19L14.01 16.00C14.63 16.90 14.51 18.15 13.75 18.92L12.94 19.74C12.12 20.55 10.96 20.85 9.89 20.52C7.35 19.72 5.01 17.37 2.88 13.46C0.75 9.55 -0.00 6.22 0.62 3.49C0.89 2.35 1.71 1.43 2.77 1.09" fill="currentColor"/>
</svg>