<svg xmlns="http://www.w3.org/2000/svg" width="15" height="21" viewBox="0 0 15 21" fill="none">
  <path d="M2.77204 1.09091L3.84904 0.746909C4.85704 0.424909 5.93504 0.945909 6.36704 1.96391L7.22704 3.99191C7.60204 4.87491 7.39404 5.91391 6.71304 6.55991L4.82004 8.35791C4.93671 9.43391 5.29804 10.4929 5.90404 11.5349C6.48031 12.5428 7.25248 13.4251 8.17504 14.1299L10.451 13.3699C11.313 13.0829 12.252 13.4139 12.781 14.1909L14.013 16.0009C14.629 16.9049 14.518 18.1509 13.755 18.9169L12.937 19.7379C12.123 20.5549 10.961 20.8519 9.88504 20.5159C7.34637 19.7239 5.01204 17.3729 2.88204 13.4629C0.749374 9.54624 -0.0032928 6.22358 0.624041 3.49491C0.888041 2.34691 1.70604 1.43191 2.77404 1.09091" fill="#2B2A29"/>
</svg>
