<svg xmlns="http://www.w3.org/2000/svg" width="25" height="24" viewBox="0 0 25 24" fill="none">
  <path fill-rule="evenodd" clip-rule="evenodd" d="M12.5 22C18.0228 22 22.5 17.5228 22.5 12C22.5 6.47715 18.0228 2 12.5 2C6.97715 2 2.5 6.47715 2.5 12C2.5 17.5228 6.97715 22 12.5 22ZM12.5 14.2222V6.44444H14.7222C14.7222 6.90555 15.0554 7.4908 15.5903 7.95703C16.1252 8.42326 16.8919 8.66667 16.9444 8.66667V10.8889C16.1212 10.8889 15.4068 10.5237 14.7222 10.036V14.2222C14.7222 16.05 13.2166 17.5556 11.3889 17.5556C9.56114 17.5556 8.05556 16.05 8.05556 14.2222C8.05556 12.3945 9.56114 10.8889 11.3889 10.8889V13.1111C10.7611 13.1111 10.2778 13.5944 10.2778 14.2222C10.2778 14.85 10.7611 15.3333 11.3889 15.3333C12.0167 15.3333 12.5 14.85 12.5 14.2222Z" fill="#FCFBFA"/>
</svg>