<svg xmlns="http://www.w3.org/2000/svg" width="21" height="20" viewBox="0 0 21 20" fill="none">
  <path d="M17.577 2.928C15.691 1.041 13.183 0.001 10.511 0C5.005 0 0.524 4.479 0.522 9.985C0.521 11.745 0.981 13.463 1.855 14.977L0.5 20L5.733 18.763C7.192 19.559 8.834 19.978 10.506 19.979H10.51C16.015 19.979 20.496 15.499 20.499 9.994C20.501 7.325 19.463 4.816 17.577 2.928ZM15.398 13.554C15.19 14.137 14.171 14.699 13.713 14.74C13.255 14.782 12.826 14.947 10.718 14.116C8.181 13.116 6.579 10.515 6.455 10.349C6.33 10.182 5.436 8.996 5.436 7.768C5.436 6.54 6.081 5.936 6.31 5.687C6.539 5.437 6.809 5.375 6.976 5.375C7.142 5.375 7.309 5.375 7.454 5.381C7.632 5.388 7.829 5.397 8.016 5.812C8.238 6.306 8.723 7.54 8.785 7.665C8.847 7.79 8.889 7.936 8.806 8.102C8.723 8.268 8.681 8.372 8.557 8.518C8.432 8.664 8.295 8.843 8.183 8.955C8.058 9.079 7.928 9.215 8.073 9.464C8.219 9.714 8.719 10.531 9.461 11.192C10.415 12.042 11.218 12.305 11.468 12.431C11.718 12.556 11.863 12.535 12.009 12.368C12.155 12.202 12.633 11.64 12.799 11.39C12.965 11.14 13.132 11.182 13.361 11.265C13.59 11.348 14.817 11.952 15.066 12.077C15.316 12.202 15.482 12.264 15.544 12.368C15.606 12.471 15.606 12.971 15.398 13.554Z" fill="#FCFBFA"/>
</svg>