<svg xmlns="http://www.w3.org/2000/svg" width="172" height="38" viewBox="0 0 172 38" fill="none">
  <path d="M42.045 0.949219C43.5928 0.949219 44.9583 1.25646 46.1419 1.87093C47.3255 2.48564 48.2472 3.3807 48.9073 4.55681C49.5674 5.73268 49.8973 7.13255 49.8973 8.75596V17.2457H44.526V14.0365H39.4732V17.2457H34.1926V8.75596C34.1926 7.13255 34.5228 5.73268 35.1828 4.55681C35.8429 3.3807 36.7646 2.48564 37.9482 1.87093C39.1318 1.25646 40.4973 0.949219 42.045 0.949219ZM44.526 9.98514V8.30094C44.526 7.31446 44.2945 6.56718 43.8318 6.05886C43.3688 5.55054 42.7581 5.29638 41.9996 5.29638C41.2409 5.29638 40.6301 5.55054 40.1674 6.05886C39.7044 6.56718 39.4732 7.31446 39.4732 8.30094V9.98514H44.526ZM65.807 4.79577V17.2457H60.9134V16.0621C60.4582 16.5325 59.9272 16.8854 59.3202 17.1206C58.7132 17.3556 58.0683 17.4732 57.3856 17.4732C55.8075 17.4732 54.5405 16.9915 53.5846 16.028C52.6288 15.0644 52.1506 13.6117 52.1506 11.6693V4.79577H57.2946V10.7818C57.2946 11.6315 57.4312 12.2385 57.7043 12.6025C57.9774 12.9668 58.3795 13.1487 58.9105 13.1487C59.4114 13.1487 59.8285 12.9479 60.1624 12.5457C60.4961 12.1435 60.663 11.5101 60.663 10.6452V4.79577H65.807ZM76.641 16.8133C75.8671 17.2532 74.8125 17.4732 73.4772 17.4732C71.7322 17.4732 70.3894 17.0523 69.4487 16.2101C68.5079 15.3679 68.0374 14.1048 68.0374 12.4204V1.99626H73.1814V5.47852H75.7305V9.23411H73.1814V12.375C73.1814 12.7543 73.2801 13.0503 73.4772 13.2626C73.6745 13.4751 73.9324 13.5813 74.2511 13.5813C74.6912 13.5813 75.0782 13.4674 75.4118 13.2399L76.641 16.8133ZM84.1746 17.4732C82.7939 17.4732 81.5533 17.1963 80.4534 16.6424C79.3533 16.0887 78.4921 15.3225 77.87 14.3438C77.248 13.365 76.9368 12.2536 76.9368 11.0093C76.9368 9.76512 77.248 8.65354 77.87 7.67501C78.4921 6.69625 79.3533 5.93376 80.4534 5.38756C81.5533 4.84136 82.7939 4.56826 84.1746 4.56826C85.5705 4.56826 86.8187 4.84136 87.9188 5.38756C89.0189 5.93376 89.8761 6.69625 90.4906 7.67501C91.1053 8.65354 91.4125 9.76512 91.4125 11.0093C91.4125 12.2536 91.1053 13.365 90.4906 14.3438C89.8761 15.3225 89.0189 16.0887 87.9188 16.6424C86.8187 17.1963 85.5705 17.4732 84.1746 17.4732ZM84.1746 13.4674C84.7664 13.4674 85.2518 13.2511 85.6313 12.8188C86.0106 12.3862 86.2002 11.7832 86.2002 11.0093C86.2002 10.2356 86.0106 9.63605 85.6313 9.2112C85.2518 8.78635 84.7664 8.57404 84.1746 8.57404C83.5829 8.57404 83.0972 8.78635 82.718 9.2112C82.3387 9.63605 82.1488 10.2356 82.1488 11.0093C82.1488 11.7832 82.3387 12.3862 82.718 12.8188C83.0972 13.2511 83.5829 13.4674 84.1746 13.4674ZM15.5613 27.1191C14.3323 26.4364 13.0882 25.9659 11.8286 25.708V37.4752H6.45729V25.708C5.1977 25.9659 3.95356 26.4364 2.7246 27.1191L0.949219 23.2955C2.08721 22.6128 3.36176 22.0892 4.77286 21.7249C6.18419 21.3609 7.64064 21.1787 9.14293 21.1787C10.6452 21.1787 12.1017 21.3609 13.513 21.7249C14.9241 22.0892 16.1986 22.6128 17.3366 23.2955L15.5613 27.1191ZM23.8461 33.9017C24.3923 33.9017 24.8513 33.8335 25.2231 33.6969C25.5949 33.5604 26.0008 33.3252 26.4408 32.9915L29.1265 35.6998C27.8823 37.0352 26.0691 37.7027 23.6867 37.7027C22.1846 37.7027 20.8645 37.4259 19.7265 36.8719C18.5885 36.3183 17.7084 35.5481 17.0862 34.5618C16.4643 33.5756 16.153 32.468 16.153 31.2388C16.153 29.9946 16.4643 28.8831 17.0862 27.9045C17.7084 26.9258 18.5618 26.1633 19.6468 25.6171C20.7317 25.0709 21.9494 24.7978 23.2999 24.7978C24.5289 24.7978 25.6594 25.0442 26.6913 25.5374C27.7229 26.0305 28.5424 26.7588 29.1492 27.7224C29.7562 28.686 30.0596 29.8354 30.0596 31.1705L21.5472 32.8093C21.9267 33.5377 22.693 33.9017 23.8461 33.9017ZM23.3226 28.3027C22.7308 28.3027 22.2492 28.4772 21.8774 28.8262C21.5056 29.1753 21.2819 29.6911 21.2059 30.3739L25.189 29.6002C25.0524 29.2055 24.8209 28.8908 24.4948 28.6556C24.1686 28.4203 23.7779 28.3027 23.3226 28.3027ZM38.3672 37.7027C36.9559 37.7027 35.6928 37.4296 34.5775 36.8834C33.4622 36.3372 32.5898 35.571 31.9601 34.5847C31.3305 33.5983 31.0155 32.4832 31.0155 31.2388C31.0155 29.9946 31.3305 28.8831 31.9601 27.9045C32.5898 26.9258 33.4622 26.1633 34.5775 25.6171C35.6928 25.0709 36.9559 24.7978 38.3672 24.7978C39.8845 24.7978 41.1819 25.124 42.2591 25.7763C43.3366 26.4289 44.0799 27.3317 44.4898 28.4849L40.5067 30.4422C40.021 29.3498 39.3004 28.8036 38.3443 28.8036C37.7376 28.8036 37.233 29.0159 36.8308 29.4407C36.4286 29.8656 36.2276 30.4651 36.2276 31.2388C36.2276 32.0279 36.4286 32.6349 36.8308 33.0598C37.233 33.4846 37.7376 33.6969 38.3443 33.6969C39.3004 33.6969 40.021 33.1507 40.5067 32.0583L44.4898 34.0156C44.0799 35.1688 43.3366 36.0716 42.2591 36.7242C41.1819 37.3765 39.8845 37.7027 38.3672 37.7027ZM54.3221 24.7978C55.8545 24.7978 57.0875 25.2605 58.0206 26.186C58.9538 27.1117 59.4205 28.5076 59.4205 30.3739V37.4752H54.2765V31.2617C54.2765 29.8354 53.7682 29.122 52.7515 29.122C52.1749 29.122 51.7085 29.3231 51.3519 29.7253C50.9953 30.1274 50.8169 30.7609 50.8169 31.6258V37.4752H45.6731V20.5869H50.8169V26.0267C51.773 25.2074 52.9414 24.7978 54.3221 24.7978ZM70.2998 24.7978C71.8323 24.7978 73.0652 25.2605 73.9984 26.186C74.9316 27.1117 75.3983 28.5076 75.3983 30.3739V37.4752H70.2542V31.2617C70.2542 29.8354 69.7459 29.122 68.7293 29.122C68.1527 29.122 67.6862 29.3231 67.3296 29.7253C66.9731 30.1274 66.7947 30.7609 66.7947 31.6258V37.4752H61.6509V25.0253H66.5445V26.2542C67.0299 25.7688 67.5913 25.4045 68.2287 25.1618C68.8661 24.9191 69.5563 24.7978 70.2998 24.7978ZM84.4342 37.7027C83.0535 37.7027 81.8128 37.4259 80.713 36.8719C79.6128 36.3183 78.7517 35.552 78.1295 34.5733C77.5075 33.5945 77.1963 32.4832 77.1963 31.2388C77.1963 29.9946 77.5075 28.8831 78.1295 27.9045C78.7517 26.9258 79.6128 26.1633 80.713 25.6171C81.8128 25.0709 83.0535 24.7978 84.4342 24.7978C85.8301 24.7978 87.0782 25.0709 88.1783 25.6171C89.2785 26.1633 90.1356 26.9258 90.7501 27.9045C91.3648 28.8831 91.672 29.9946 91.672 31.2388C91.672 32.4832 91.3648 33.5945 90.7501 34.5733C90.1356 35.552 89.2785 36.3183 88.1783 36.8719C87.0782 37.4259 85.8301 37.7027 84.4342 37.7027ZM84.4342 33.6969C85.026 33.6969 85.5114 33.4806 85.8909 33.0483C86.2701 32.6157 86.4598 32.0127 86.4598 31.2388C86.4598 30.4651 86.2701 29.8656 85.8909 29.4407C85.5114 29.0159 85.026 28.8036 84.4342 28.8036C83.8424 28.8036 83.3568 29.0159 82.9775 29.4407C82.5982 29.8656 82.4084 30.4651 82.4084 31.2388C82.4084 32.0127 82.5982 32.6157 82.9775 33.0483C83.3568 33.4806 83.8424 33.6969 84.4342 33.6969Z" fill="#EF7F1A"/>
  <path d="M103.34 22.996V37.7027H95.3839V3.33627H103.34V18.0589L108.557 3.33627H116.713L109.907 19.3451L117.768 37.7027H109.236L103.34 22.996ZM130.853 3.33627H138.721L131.907 23.2754V37.7027H123.951V23.2754L117.089 3.33627H125.053L127.977 15.7025L130.853 3.33627ZM142.3 3.33627H150.257V37.7027H142.3V3.33627ZM160.65 29.4505H161.217L163.19 3.33627H171.051L167.025 37.7027H155.042L150.536 3.33627H158.389L160.65 29.4505Z" fill="#2B2A29"/>
</svg>